<?xml version="1.0" standalone="no"?>
<!DOCTYPE svg PUBLIC "-//W3C//DTD SVG 1.1//EN" "http://www.w3.org/Graphics/SVG/1.1/DTD/svg11.dtd" >
<svg xmlns="http://www.w3.org/2000/svg">
<metadata>
Created by FontForge 20120731 at Tue Mar 14 11:55:42 2017
 By admin
</metadata>
<defs>
<font id="iconfont" horiz-adv-x="1024" >
  <font-face 
    font-family="iconfont"
    font-weight="500"
    font-stretch="normal"
    units-per-em="1024"
    panose-1="2 0 6 3 0 0 0 0 0 0"
    ascent="896"
    descent="-128"
    x-height="792"
    bbox="0 -212 1139 896.014"
    underline-thickness="0"
    underline-position="0"
    unicode-range="U+0078-E82A"
  />
<missing-glyph 
 />
    <glyph glyph-name=".notdef" 
 />
    <glyph glyph-name=".notdef" 
 />
    <glyph glyph-name=".null" horiz-adv-x="0" 
 />
    <glyph glyph-name="nonmarkingreturn" horiz-adv-x="341" 
 />
    <glyph glyph-name="x" unicode="x" horiz-adv-x="1001" 
d="M281 543q-27 -1 -53 -1h-83q-18 0 -36.5 -6t-32.5 -18.5t-23 -32t-9 -45.5v-76h912v41q0 16 -0.5 30t-0.5 18q0 13 -5 29t-17 29.5t-31.5 22.5t-49.5 9h-133v-97h-438v97zM955 310v-52q0 -23 0.5 -52t0.5 -58t-10.5 -47.5t-26 -30t-33 -16t-31.5 -4.5q-14 -1 -29.5 -0.5
t-29.5 0.5h-32l-45 128h-439l-44 -128h-29h-34q-20 0 -45 1q-25 0 -41 9.5t-25.5 23t-13.5 29.5t-4 30v167h911zM163 247q-12 0 -21 -8.5t-9 -21.5t9 -21.5t21 -8.5q13 0 22 8.5t9 21.5t-9 21.5t-22 8.5zM316 123q-8 -26 -14 -48q-5 -19 -10.5 -37t-7.5 -25t-3 -15t1 -14.5
t9.5 -10.5t21.5 -4h37h67h81h80h64h36q23 0 34 12t2 38q-5 13 -9.5 30.5t-9.5 34.5q-5 19 -11 39h-368zM336 498v228q0 11 2.5 23t10 21.5t20.5 15.5t34 6h188q31 0 51.5 -14.5t20.5 -52.5v-227h-327z" />
    <glyph glyph-name="chajian" unicode="&#xe600;" 
d="M802 404q32 0 60.5 -12t50 -33.5t33.5 -50t12 -60.5q0 -33 -12 -61t-33.5 -49.5t-50 -34t-60.5 -12.5q-30 0 -56 11t-47 28v-128q0 -28 -19.5 -47.5t-46.5 -19.5h-505q-28 0 -48 19.5t-20 47.5v114q6 21 19 31.5t39 -5.5q12 -7 18 -8q27 -13 54.5 -13t51.5 10t42 28
t28.5 41.5t10.5 51.5t-10.5 52t-28.5 42t-42 28t-52 10q-26 0 -52 -11q-6 -2 -10 -4q-12 -7 -24 -12t-21 -4t-15.5 10.5t-7.5 30.5v108q0 27 20 47t48 20h160q-17 21 -26.5 46t-9.5 54q0 33 13 62.5t34.5 51t50.5 34t61.5 12.5t62 -12.5t51 -34t34 -51t12.5 -62.5
q0 -58 -35 -100h97q27 0 46.5 -20t19.5 -47v-136q21 17 47 27.5t56 10.5z" />
    <glyph glyph-name="fuwu" unicode="&#xe601;" 
d="M414 348h-302q-20 0 -34.5 14.5t-14.5 34.5v303q0 20 14.5 34t34.5 14h302q20 0 34.5 -14t14.5 -34v-303q0 -20 -14.5 -34.5t-34.5 -14.5zM112 700v-303h302v303h-302zM911 348h-303q-20 0 -34 14.5t-14 34.5v303q0 20 14 34t34 14h303q20 0 34 -14t14 -34v-303
q0 -20 -14 -34.5t-34 -14.5zM608 700v-303h303v303h-303zM414 -148h-302q-20 0 -34.5 14t-14.5 34v303q0 20 14.5 34t34.5 14h302q20 0 34.5 -14t14.5 -34v-303q0 -20 -14.5 -34t-34.5 -14zM112 203v-303h302v303h-302zM911 -148h-303q-20 0 -34 14t-14 34v303q0 20 14 34
t34 14h303q20 0 34 -14t14 -34v-303q0 -20 -14 -34t-34 -14zM608 203v-303h303v303h-303z" />
    <glyph glyph-name="chanpin" unicode="&#xe61c;" 
d="M270.5 676q55.5 0 95 -39.5t39.5 -95.5v-134h-134q-56 0 -95.5 39.5t-39.5 95t39.5 95t95 39.5zM271 747q-86 0 -146 -60t-60 -145.5t60 -146t146 -60.5h159q19 0 33 14t14 33v159q0 86 -60.5 146t-145.5 60v0zM271 195v0h134v-134q0 -56 -39.5 -95t-95 -39t-95 39
t-39.5 95t39.5 95t95.5 39zM271 267q-86 0 -146 -60.5t-60 -145.5t60 -145.5t145.5 -60.5t146 60.5t60.5 145.5v160q0 19 -14 32.5t-33 13.5h-159v0zM751 676q56 0 95 -39.5t39 -95t-39 -95t-95 -39.5h-134v134q0 56 39 95.5t95 39.5zM751 747q-85 0 -145.5 -60t-60.5 -146
v-159q0 -19 13.5 -33t32.5 -14h160q85 0 145.5 60.5t60.5 146t-60.5 145.5t-145.5 60v0zM751 195v0q56 0 95 -39t39 -95t-39 -95t-95 -39t-95 39t-39 95v134h134zM751 267h-160q-19 0 -32.5 -13.5t-13.5 -32.5v-160q0 -85 60.5 -145.5t145.5 -60.5t145.5 60.5t60.5 145.5
t-60.5 145.5t-145.5 60.5v0z" />
    <glyph glyph-name="fangan" unicode="&#xe602;" 
d="M406 222l-151 -151l-27 27l151 151l-42 42l-194 -194v0v0v0v0l-78 -241l241 79v0v0v0v0l194 194l-94 93v0zM562 432l70 70l27 -27l-70 -70l93 -94l112 112l-163 163l-111 -112l42 -42v0zM794 748l-107 -107l162 -163l108 107l-163 163v0zM757 243q-28 0 -60 -16l-259 259
q16 32 16 59q0 78 -61.5 140.5t-138.5 62.5h-2q-1 0 -19 -18l26 -26q38 -38 44.5 -48.5t5.5 -35.5v-11q0 -31 -38 -68.5t-68 -37.5q-5 0 -12 -0.5t-10 -0.5q-5 0 -8 0.5t-7.5 1.5t-7 2t-7 5t-8 7t-10.5 10l-12.5 12.5l-17 17l-21.5 21.5q-18 -18 -18 -19q1 -78 63 -140
t140 -62q27 0 58 15l260 -259q-16 -32 -16 -58q0 -78 62 -140.5t139 -62.5h2q1 0 19 18l-26 26q-38 38 -44.5 48.5t-6.5 35.5v11q0 31 38.5 68.5t68.5 37.5q5 0 12 0.5t10 0.5q5 0 8 -0.5t7 -1.5t6.5 -2t7.5 -5t8.5 -7t10.5 -10l12.5 -12.5l17 -17l21.5 -21.5q18 18 18 19
q-1 78 -63 140t-140 62v0v0zM757 243z" />
    <glyph glyph-name="fuwu1" unicode="&#xe64f;" 
d="M825 434v177h-188l-128 125l-134 -130h-181v-184l-129 -125l134 -131v-177h188l128 -125l134 130h181v184l129 125zM512 47q-107 0 -183 74t-76 179t76 179t183 74t183 -74t76 -179t-76 -179t-183 -74zM674 300q0 -65 -47.5 -111.5t-114.5 -46.5t-114.5 46.5t-47.5 111.5
t47.5 111.5t114.5 46.5t114.5 -46.5t47.5 -111.5v0z" />
    <glyph glyph-name="dongtai" unicode="&#xe6b5;" 
d="M291 329zM256 329.5q0 14.5 10 24.5t24.5 10t24.5 -10t10 -24.5t-10 -24.5t-24.5 -10t-24.5 10t-10 24.5zM483 329zM448 329.5q0 14.5 10 24.5t24.5 10t24.5 -10t10 -24.5t-10 -24.5t-24.5 -10t-24.5 10t-10 24.5zM675 329zM640 329.5q0 14.5 10 24.5t24.5 10t24.5 -10
t10 -24.5t-10 -24.5t-24.5 -10t-24.5 10t-10 24.5zM800 620h-640q-96 0 -96 -96v-384q0 -96 96 -96h96v-96q0 -19 17 -28q7 -4 15 -4q10 0 18 5l184 123h310q96 0 96 96v384q0 96 -96 96zM832 108h-352v0l-32 -20l-128 -80v80v20h-29h-3h-160v448h704v-448z" />
    <glyph glyph-name="dongtai1" unicode="&#xe628;" 
d="M115 402l295 302q4 4 11.5 9.5t30.5 16t45 14t52 -5t55 -34.5l310 -292q5 -4 12 -11.5t20 -30.5t17.5 -47t-6.5 -58t-43 -66l-307 -307q-3 -4 -8.5 -10t-23.5 -17t-37 -14.5t-48 5.5t-59 36l-316 288q-5 4 -13 11t-23 30t-20 47.5t7.5 61t48.5 72.5zM393 594
q2 -5 5.5 -14.5t10 -37.5t8.5 -53.5t-4 -57.5t-23 -56q-4 -8 -13.5 -22t-54.5 -62t-108 -101q5 2 14 4.5t35 8t48 8.5t47 2t40 -7q6 -3 16.5 -8.5t39.5 -24t55.5 -39.5t57.5 -55t52 -70q-2 6 -4.5 15.5t-8 37.5t-7 53.5t4 56t18.5 52.5q4 6 11.5 16t30 37t45 51t54.5 50
t62 41q-6 -2 -16 -4.5t-39 -7.5t-55.5 -7t-59.5 1t-57 13v0q-127 87 -185 153q-13 15 -20 27z" />
    <glyph glyph-name="weibiaoti101" unicode="&#xe62e;" 
d="M512 -212q-8 9 -22 25t-53.5 64.5t-76 96t-81 113t-76 122.5t-53.5 116.5t-22 102.5q0 104 51.5 192.5t140 140t192.5 51.5t192.5 -51.5t140 -140t51.5 -192.5q0 -59 -39.5 -147t-96 -171t-113 -157t-95.5 -120zM512 684q-106 0 -181 -75t-75 -181t75 -181t181 -75
t181 75t75 181t-75 181t-181 75zM512 300q-53 0 -90.5 37.5t-37.5 90.5t37.5 90.5t90.5 37.5t90.5 -37.5t37.5 -90.5t-37.5 -90.5t-90.5 -37.5v0z" />
    <glyph glyph-name="iconfontmokuaiguanli" unicode="&#xe63b;" 
d="M548 252q0 20 -7.5 37t-20.5 29.5t-30.5 20t-37.5 7.5h-257q-19 0 -36.5 -7.5t-31 -20t-21 -29.5t-7.5 -37v-251q0 -19 7.5 -37t21 -30.5t31 -20t36.5 -7.5h257q20 0 37.5 7.5t30.5 20t20.5 30.5t7.5 37v251zM879 73q26 0 44.5 18.5t18.5 43.5v147q0 26 -18.5 44.5
t-44.5 18.5h-153q-26 0 -45 -18.5t-19 -44.5v-147q0 -25 19 -43.5t45 -18.5h153zM879 403q26 0 44.5 18t18.5 44v148q0 25 -18.5 43.5t-44.5 18.5h-153q-26 0 -45 -18.5t-19 -43.5v-148q0 -26 19 -44t45 -18h153zM484 403q26 0 45.5 18t19.5 44v148q0 25 -19.5 43.5
t-45.5 18.5h-152q-26 0 -45 -18.5t-19 -43.5v-148q0 -26 19 -44t45 -18h152z" />
    <glyph glyph-name="guanyuwomen" unicode="&#xe607;" 
d="M512 812q-138 0 -256 -69t-187 -187t-69 -256t69 -256t187 -187t256 -69t256 69t187 187t69 256t-69 256t-187 187t-256 69zM512 -148q-187 0 -317.5 130.5t-130.5 317.5t130.5 317.5t317.5 130.5t317.5 -130.5t130.5 -317.5t-130.5 -317.5t-317.5 -130.5zM512 652
q-91 0 -157.5 -66.5t-66.5 -157.5t66.5 -157.5t157.5 -66.5t157.5 66.5t66.5 157.5t-66.5 157.5t-157.5 66.5zM512 268q-67 0 -113.5 46.5t-46.5 113.5t46.5 113.5t113.5 46.5t113.5 -46.5t46.5 -113.5t-46.5 -113.5t-113.5 -46.5zM205 -39q24 106 110.5 174.5t196.5 68.5
t196.5 -68.5t110.5 -174.5h64q-29 131 -134.5 219t-242.5 88q-139 0 -244 -86t-134 -221h77z" />
    <glyph glyph-name="dongtai2" unicode="&#xe665;" 
d="M128 428q-53 0 -90.5 -37.5t-37.5 -90.5t37.5 -90.5t90.5 -37.5t90.5 37.5t37.5 90.5t-37.5 90.5t-90.5 37.5zM512 428q-53 0 -90.5 -37.5t-37.5 -90.5t37.5 -90.5t90.5 -37.5t90.5 37.5t37.5 90.5t-37.5 90.5t-90.5 37.5zM896 428q-53 0 -90.5 -37.5t-37.5 -90.5
t37.5 -90.5t90.5 -37.5t90.5 37.5t37.5 90.5t-37.5 90.5t-90.5 37.5z" />
    <glyph glyph-name="mokuai" unicode="&#xe7b0;" 
d="M124 781v0v0zM686 257zM724 533q-179 -9 -243 -12q-31 -1 -41 20t15 46q17 17 22 24t8.5 21.5t1.5 38.5q-4 39 -36 56.5t-73 17.5q-39 0 -73 -19.5t-45 -53.5q-19 -55 17 -81q1 -1 7 -5t8 -6t6.5 -6t5 -7.5t0 -8.5t-4.5 -10.5t-12 -11.5q-5 -5 -29.5 -6t-55.5 0t-60.5 3
t-51 4t-20.5 2q-1 -19 -2 -45.5t-2.5 -93.5t2.5 -78q3 -22 23 -27t37 17q13 16 35.5 19.5t44 -5.5t38 -33t18.5 -56q1 -26 -8.5 -46.5t-25 -30t-32.5 -13t-31.5 1.5t-20.5 16q-16 27 -47 29t-34 -30q-4 -68 28 -286v0q15 -4 38 -8.5t74 -10.5t77 -2q20 3 26 29.5t-12 43.5
q-7 6 -11 20.5t-1 32t13 33t34 24t58 5.5q27 -3 44 -13.5t23 -24t6 -28t-5.5 -25.5t-13.5 -16q-11 -7 -14 -21.5t7.5 -29.5t33.5 -21q39 -6 98 -0.5t113 15.5l54 11q-3 18 -7 46t-9.5 86t-1.5 81q4 19 16 26.5t26 4t25.5 -9t14.5 -10.5q26 -34 64 -35t67 32t29 88
q0 76 -39 107.5t-80 23t-49 -31.5q-8 -21 -25 -27t-32 1t-18 20q-4 18 -4.5 49t1.5 63t4.5 60.5t4.5 48t2 18.5v0zM724 533z" />
    <glyph glyph-name="guanyuwomen1" unicode="&#xe608;" 
d="M510 751q-91 0 -174 -35.5t-143 -95.5t-95.5 -143t-35.5 -174t35.5 -174t95.5 -143t143 -95.5t174 -35.5t174 35.5t143.5 95.5t96 143t35.5 174t-35.5 174t-96 143t-143.5 95.5t-174 35.5zM665 -63q-74 -31 -155 -31t-154 31q-71 30 -126 85h-1q37 86 113.5 136.5
t169.5 50.5q91 0 168 -50.5t114 -133.5q-1 0 -1.5 -1t-1.5 -2q-55 -55 -126 -85zM512 280q-53 0 -90.5 37.5t-37.5 90t37.5 90t90.5 37.5t90.5 -37.5t37.5 -90t-37.5 -90t-90.5 -37.5zM830 68q-41 78 -113 128q-55 39 -119 54q42 24 67.5 65.5t25.5 91.5q0 75 -52.5 127.5
t-126.5 52.5t-126.5 -52.5t-52.5 -127.5q0 -50 25.5 -91.5t67.5 -65.5q-62 -15 -116 -52q-76 -52 -117 -133q-30 39 -49 84q-31 73 -31 154t31 155q31 71 86 126t126 85q73 31 154 31t155 -31q71 -30 126 -85t85 -126q31 -74 31 -155t-31 -154q-18 -44 -46 -81z" />
    <glyph glyph-name="dongtai3" unicode="&#xe60c;" 
d="M875 345q-9 73 -44.5 135.5t-93.5 107.5q-120 94 -271 75q-74 -9 -138 -46t-109 -96l-8 62q-1 6 -6 10t-11 3.5t-10 -5.5t-3 -12l13 -107v-3q1 -6 6 -10t11 -3l109 13h3q12 4 11 17q-1 6 -6 10t-11 3l-80 -12q41 59 101.5 96t131.5 46q137 16 245 -68q53 -41 85 -98
t40 -122q11 -90 -23.5 -171t-105.5 -134.5t-160 -64.5t-170.5 24t-135 105t-64.5 159q-1 6 -8 10t-13 3q-7 -1 -11 -6t-3 -11q12 -98 71.5 -176t149 -116t188.5 -26q26 3 51 10q131 35 208.5 148t60.5 250zM542 463q0 8 -5 13.5t-12.5 5.5t-13 -5.5t-5.5 -13.5v-200
l-135 -48q-7 -3 -9.5 -10.5t0.5 -15t10 -10t14 0.5l146 51q11 6 10 19v0.5v1.5v211z" />
    <glyph glyph-name="zaifuwu" unicode="&#xe61f;" 
d="M863 265l-3 16l-15 5q-108 34 -196 83l-6 3h-14l-7 -3q-10 -6 -26 -14q24 31 37 69q22 13 27 43q6 35 -15 54q-3 45 -16 79t-30 53.5t-40 31.5t-42 16t-39 5q-75 -1 -123 -50q-48 -51 -50 -135q-20 -19 -14 -54q5 -33 29 -45q17 -49 48 -84.5t68 -48.5q-5 -2 -9 -3
l-16 -5l-2 -16v-1l-26 50l-18 -3q-238 -32 -238 -226v-26h309q53 -130 188 -195l5 -3h13l6 3q52 25 92 60.5t62.5 70t37 75t19.5 71t6 61.5t0 43t-2 20zM774 196l-135 -136q-6 -6 -14 -6t-14 6l-63 63q-5 6 -5 14t5.5 14t14 6t13.5 -6l49 -49l121 122q6 6 14 6t13.5 -6
t5.5 -14.5t-5 -13.5z" />
    <glyph glyph-name="fuwu2" unicode="&#xe657;" 
d="M732 729q13 0 56 -8q-29 -29 -92 -90q-1 -1 -8.5 -7.5t-10.5 -10t-5.5 -10.5t-0.5 -15q3 -14 38 -43q2 -2 11.5 -12t16.5 -13q6 -3 12 -3q7 0 13.5 4t14 11.5t8.5 9.5q37 35 99 94q4 -9 7 -17q4 -9 8 -32q7 -42 -11 -89q-19 -47 -61.5 -83t-95.5 -45q-7 -1 -16 -1
q-27 0 -59 12q-4 1 -10 3.5t-9 3.5q-30 -26 -33 -29l-11 -11t-13 -12q-11 -12 -23 -23q30 -30 48 -47l1 1q3 2 16 15.5t25 13.5q3 0 6 -1q7 -1 12 -4t10.5 -8.5l7.5 -7.5l42 -42l159 -158l45 -45q21 -17 27 -28q4 -9 3 -20t-6 -17q-32 -29 -80 -73q-1 -2 -5.5 -6t-7 -6
t-7.5 -4t-10 -2h-5q-8 2 -13.5 5.5t-12 10l-9.5 9.5q-7 7 -22 21.5t-22 21.5q-44 42 -158 156l-46 45q-17 14 -21 24q-5 13 0.5 24t17 22t14.5 16q-22 22 -34 33q-8 9 -10 9q-1 0 -1 -1q-17 -20 -51 -60.5t-51 -61.5q-1 -1 -114 -142q-26 -33 -33 -41q-25 -34 -45 -50
q-9 -8 -21 -20q-18 -15 -41 -21q-10 -3 -20 -3q-22 0 -41.5 9t-29.5 21q-1 2 -4.5 6.5t-4.5 6.5q-17 25 -12 69q4 17 12 30q3 3 6 7q9 12 34 35q89 80 104 93q8 7 26.5 23.5t28.5 24.5q14 13 40.5 37t32.5 29q3 3 103 91q-5 11 -24 27q-14 13 -42 41q-13 13 -184 182
q-7 -3 -16 -3q-22 0 -37 11q-18 18 -22 21q-3 3 -10 9t-8 8l0.5 1l0.5 1q10 9 35.5 34t39.5 39q4 -3 11 -10t11 -10q7 -6 10.5 -9.5t9.5 -10.5t8 -13.5t2 -15.5t-3 -19q138 -137 251 -247h5l22 22l20 20q26 26 34 36q-4 11 -8 19q-9 23 -14 49q-6 36 14 72q45 79 122 109
q13 5 40 11q11 1 21 2h3zM173 766l-21 -20l-37 -36l-38 -37l-2 -1l-1 -3q-1 0 -2 -1v-1l-17 -22l21 -19l19 -17l14 -14l7 -6l2 -2l2 -1q23 -16 54 -16h7l80 -80l92 -91l21 -20l20 -21l1 -1l1 -1h1l-10 -8q-31 -28 -71 -63v0v0l-25 -23q-38 -34 -48 -43l-28 -25l-26 -23
q-27 -22 -77 -69q-19 -16 -28 -25h-1q-25 -24 -37 -38q-2 -4 -5 -7l-1 -1l-1 -2q-11 -17 -16 -41v-1v-1q-7 -55 16 -89l1 -1v-1l5 -6l5 -6v0v-1q14 -18 40 -29q27 -12 55 -12q14 0 28 3q29 8 53 27l1 1l1 1l1 1q9 9 19 18q21 19 48 54q3 4 29 36l4 5l42 52q44 56 72 90
q16 18 51 61q2 3 7.5 9.5t8.5 9.5h-1q-14 -26 -3 -53q6 -17 28 -36q30 -29 46 -44l79 -78l79 -78l22 -22l22 -21l1 -1l1 -1l6 -6q20 -21 42 -25q6 -1 11 -1q24 0 46 22q3 2 4 3l1 1v0q48 44 80 74l2 2l2 2q9 12 11 32q3 22 -6 38q-9 15 -34 36l-28 28l-15 15l-159 159
l-21 21l-21 21l-1 1h-1l-5 5q-19 19 -40 22q-5 1 -11 1q-18 0 -34 -11l-8 -6l-2 2l-2 2q1 0 1 1v0v0q6 5 14 14l8 8q8 6 19 17l1 -1h1v0q38 -14 70 -14q11 0 21 2q61 10 111 52q48 40 69 95q22 55 13 106v1q-5 24 -9 36v1v0q-4 8 -7 16l-17 42l-33 -31l-11 -11
q-69 -65 -87 -82l-9 -9q-5 -6 -8 -7l-7 7q-7 8 -12 12q-19 16 -27 27q2 2 8 7q5 4 7 6v1v0l4 4q80 78 89 86l42 41l-58 11q-4 1 -11 2q-31 6 -51 6v-30v30h-3h-1h-1l-20 -1l-1 -1h-2h-1q-31 -6 -46 -12q-45 -18 -81 -51q-33 -30 -57 -72q-10 -19 -15 -40q-6 -27 -2 -52
q5 -30 16 -55v-1v0v-0.5v-0.5l-15 -15q-3 -4 -5 -6v0v0h-1q-12 -13 -19 -20l-1 -1l-2 -2q-97 96 -219 216q3 26 -10 48q-9 16 -31 34l-10 9l-11 10l-21 20v0z" />
    <glyph glyph-name="lianxifangshi" unicode="&#xe621;" 
d="M589 509l-17 -11q-8 -6 -17.5 -4t-13.5 11l-99 174q-5 9 -2.5 18.5t11.5 14.5l18 10q8 5 18 2.5t15 -11.5l95 -169q5 -9 3 -19t-11 -16zM853 92q-5 9 -15 12.5t-19 -0.5l-19 -9q-9 -4 -12 -13t2 -18l38 -67q27 23 52 49zM698 60l-5 -2q-19 -8 -39.5 -1t-30.5 25l-153 271
q-10 17 -5.5 38.5t20.5 33.5l4 2q17 13 21.5 34t-5.5 39l-83 146q-10 18 -25.5 18.5t-27.5 -15.5l-74 -105q-12 -17 -17.5 -43t-2.5 -46q3 -11 9.5 -33.5t42 -104.5t89.5 -177q93 -163 168 -250q119 17 217 87l-34 59q-10 18 -30.5 25t-38.5 -1zM541 505q4 -9 13.5 -11
t17.5 4l17 11q9 6 11 16t-3 19l-95 169q-5 9 -15 11.5t-18 -2.5l-18 -10q-9 -5 -11.5 -14.5t2.5 -18.5zM1024 384q0 104 -40.5 199t-109 163.5t-163.5 109t-199 40.5t-199 -40.5t-163.5 -109t-109 -163.5t-40.5 -199v-22h25v22q0 99 38.5 189t104 155.5t155.5 104t189 38.5
t189 -38.5t155.5 -104t104 -155.5t38.5 -189v-22h25v22v0z" />
    <glyph glyph-name="fuwu3" unicode="&#xe643;" 
d="M414 5.5q-10 7.5 -24 7.5t-24.5 -7.5t-10.5 -17.5t10.5 -17t24.5 -7t24 7t10 17t-10 17.5zM403.5 -21q-5.5 -4 -13.5 -4t-13.5 4t-5.5 9.5t5.5 9.5t13.5 4t13.5 -4t5.5 -9.5t-5.5 -9.5zM422 582q-13 0 -21.5 -9t-8.5 -21.5t8.5 -21.5t21.5 -9t22 9t9 21.5t-9 21.5t-22 9z
M594.5 582q-12.5 0 -21.5 -9t-9 -21.5t9 -21.5t21.5 -9t21.5 9t9 21.5t-9 21.5t-21.5 9zM444 13h-16v-49h59v11h-43v38zM287 37q18 12 57 13t60.5 -2.5t60.5 -10.5q1 0 0 1t-3 2v0q-36 18 -44 27q51 16 79 15q26 -2 57 -18l17 -8q2 -1 6 0t7.5 2.5t5.5 1.5q-3 1 -19.5 9.5
t-22.5 11.5t-19.5 6.5t-27.5 4.5q-44 3 -124 -20q-76 -21 -111 -35q2 -3 5 -9.5t5 -9.5q1 11 11 19zM491 -36h16v49h-16v-49zM326 610q-1 -10 -1 -19q0 -94 54.5 -159.5t131.5 -65.5t131.5 65.5t54.5 159.5q0 10 -1 22q9 13 12 24q9 49 -1 87.5t-29.5 60.5t-48.5 37.5
t-51 21t-45 8.5q3 4 3 8q0 7 -8 12t-19.5 5t-20 -5t-8.5 -12q0 -4 3 -7q-21 -3 -41 -8.5t-46.5 -21t-45 -37.5t-29.5 -61t-7 -88q1 -12 12 -27zM511 393q-67 0 -114.5 56t-49.5 135l14 -13q71 31 147 31q33 0 69 -7.5t56 -15.5l19 -8q11 7 23 18q-1 -81 -49 -138.5
t-115 -57.5zM447 760h122v-44h-122v44zM510 691q62 0 113 -14.5t69 -39.5q-87 36 -186 32q-44 -1 -90.5 -9t-71.5 -15l-24 -8q63 54 190 54zM314 -17l-21 30h-15v-49h15v22l17 -22h9l17 22v-22h15v49h-15zM678 12q-6 -11 -15 -20h13q4 4 8 11q4 -6 9 -11h12q-9 10 -14 20
h-13zM701 -13h-10v5h-13v-5h-14v-3h27l-9 -9l-2 2h-13l16 -13h13l-6 6l14 14q0 1 -0.5 2t-2.5 1zM639 13h-12v-8h-20v-3h20v-38h12v38h20v3h-20v8zM736.5 10q-1.5 1 -4.5 1h-25v-47h12v44h4q1 0 2 -0.5t1 -1.5l-3 -14h-2v-3h4q1 0 1 -1v-16q0 -1 -1 -1h-4v-3h11q5 0 5 3v18
q0 2 -3 3l3 16q1 1 -0.5 2zM620 58q-18 -1 -59.5 -5t-60 -4.5t-58.5 3.5l13 -7.5t21 -8.5q12 -1 18 -0.5t19.5 2t19.5 2.5q5 0 27.5 2t32.5 2.5t28.5 1.5t32 0t25.5 -4q24 -4 46 -21l40 -3q-26 20 -67.5 31t-77.5 9zM906 93q-10 33 -22.5 84t-23 99.5t-13.5 59.5
q-4 17 -61.5 38t-90.5 21q-2 -3 -6 -8.5t-19 -19.5t-34 -25t-52 -20t-72 -9q-26 -1 -54 7.5t-48.5 20.5t-38 24.5t-26.5 20.5l-9 9q-36 0 -96 -20t-62 -39q0 -1 -12 -45l-28.5 -104.5t-24.5 -93.5q-8 -50 -7.5 -85.5t9 -56.5t23.5 -34t36.5 -17t47 -5.5t54.5 0.5q30 1 46 1
h358q20 0 46.5 -1.5t44 -2.5t39 -0.5t35 2.5t28.5 7.5t23 15t15 24.5t7.5 36t-2 50t-10.5 66zM812 -75q-72 4 -285.5 3.5t-295.5 -3.5q-15 0 -14.5 101.5t7 207.5t7.5 102q23 23 64 24q9 -15 14 -61.5t13 -87.5t26 -51q23 -13 95 -20t147 -1t99 27q14 23 24.5 73.5t13.5 82
t3 38.5q14 8 27.5 -2t25.5 -10q16 1 25 -83t8 -178t-4 -162zM592 -13h12l-5 12h-12zM584 -36h12q6 7 8 19h-12q-1 -9 -8 -19zM586 13l5 -11h12l-5 11h-12zM610 -20q0 -9 -3 -16h12q2 6 2 16v19h-11v-19zM656 -1h-11v-19q0 -10 2 -16h12q-3 7 -3 16v19zM559 -15l-32 28h-16
v-49h16v28l32 -28h16v49h-16v-28z" />
    <glyph glyph-name="chajian1" unicode="&#xe719;" horiz-adv-x="1029" 
d="M644 -128h-530q-47 0 -80 33q-34 33 -34 80v124l1 5q9 37 35 57q17 14 39 14q24 0 50 -16q4 -2 7 -4h4l6 -3q19 -10 37 -10q21 0 38 8q17 7 30 20t21 30q7 17 7 37t-7 37q-8 18 -21 31t-30 20q-17 8 -38 8q-19 0 -37 -8l-2 -1l-2 -1q-3 -1 -5 -2q-14 -7 -27 -13
q-23 -10 -44 -7q-30 3 -47 29q-13 20 -15 54v2v113q0 47 33.5 80.5t80.5 33.5h96q-9 29 -9 61q0 45 17 84q17 38 45 66t66 45q39 17 82.5 17t82.5 -17q38 -17 66 -45t45 -66q17 -39 17 -84q0 -32 -9 -61h31q47 0 80 -34q32 -33 32 -80v-70q31 11 65 11q42 0 80 -16
q38 -17 66.5 -45t44.5 -66t16 -80q0 -44 -16 -81t-44.5 -65.5t-66.5 -44.5q-38 -17 -80 -17q-34 0 -65 11v-61q0 -47 -33 -80t-79 -33zM86 92v-107q0 -11 8 -19t20 -8h530q11 0 19 8t8 19v227l70 -60q17 -14 38 -23q19 -8 42 -8q24 0 46 10q23 9 40 26t26 39q9 21 9 47
q0 24 -9 46q-10 23 -26.5 39.5t-39.5 26.5q-22 9 -46 9q-23 0 -42 -8q-21 -9 -38 -22l-70 -61v236q0 12 -9 20q-7 8 -18 8h-195l60 71q27 32 27 76q0 27 -10 49q-10 23 -26.5 40t-40.5 27q-22 10 -47.5 10t-47.5 -10q-23 -10 -40 -27t-27 -40q-10 -22 -10 -49q0 -22 7 -41
q8 -20 21 -36l56 -70h-257q-11 0 -19.5 -8.5t-8.5 -19.5v-105q4 2 9 4q6 3 14 6q34 15 70 15q38 0 71 -15q33 -14 58 -38.5t39 -57.5t14 -71t-14 -71q-14 -32 -39 -56.5t-58 -38.5t-71 -14q-36 0 -71 16q-10 3 -22 9z" />
    <glyph glyph-name="iconfontanquan" unicode="&#xe64d;" 
d="M512 -43q-8 3 -21 8t-50.5 22.5t-72 37t-76 51t-71.5 64.5t-51 77t-21 89v375l363 130l363 -130v-375q0 -45 -20 -89t-52 -77.5t-71 -63.5t-77.5 -51.5t-70.5 -37t-52 -22.5zM663 517l-181 -181l-100 99l-60 -60l99 -99v0l61 -61l60 61v0l181 181z" />
    <glyph glyph-name="shouhou" unicode="&#xe68e;" horiz-adv-x="1255" 
d="M627 896q-104 0 -198.5 -40.5t-163 -109t-109.5 -163.5t-41 -199t41 -199t109.5 -163.5t163 -109t199 -40.5t199 40.5t163 109t109 163.5t40.5 199t-40.5 199t-109 163.5t-163 109t-199.5 40.5v0zM931 536q-8 -62 -49.5 -105.5t-102.5 -43.5q-50 0 -91 29l6 -5l-35 -40
l55 -56l10 10t19 14.5t19 6.5q22 -8 63.5 -49.5t72.5 -77t31 -37.5l-101 -100q-17 13 -42 33.5t-70.5 65t-54.5 66.5q-1 5 4 14.5t11 17.5l6 8l-51 52q-170 -193 -230 -252q-9 -9 -31 6t-37 37.5t-6 30.5q58 57 251 231l-147 150l-61 8l-37 81l35 37l81 -40l13 -57l147 -150
l40 35l6 -7q-28 39 -28 87q0 59 42 97.5t110 51.5q21 4 60 -13l-89 -94l74 -69l89 96q21 -39 18 -69v0zM931 536z" />
    <glyph glyph-name="shouquan" unicode="&#xe62b;" 
d="M649 759q2 22 -7 37q-25 43 -131 43q-104 1 -129 -40q-9 -16 -7 -40h274zM888 759v0h-182q1 37 -15 66q-42 70 -179 71t-178 -68q-18 -30 -16 -69h-182q-56 0 -95.5 -40t-39.5 -96v-615q0 -56 39.5 -96t95.5 -40h752q56 0 95.5 40t39.5 96v615q0 56 -39.5 96t-95.5 40z
M382 799q25 41 129 40q106 0 131 -43q9 -15 7 -37h-274q-2 24 7 40zM688 198q-42 0 -75.5 24t-48.5 62h-118l-54 39l-62 -43l-48 27l-58 -19l-57 52l19 47h382q16 35 48.5 56t71.5 21q55 0 94 -39t39 -94t-39 -94t-94 -39zM568 361h-364q-10 0 -10 -9t10 -9h364q9 0 9 9
t-9 9zM742 362q-13 0 -22 -9t-9 -22t9 -22t22 -9t22 9t9 22t-9 22t-22 9z" />
    <glyph glyph-name="shouquan1" unicode="&#xe672;" 
d="M128 625l1 1q5 9 2.5 19t-10.5 16q-7 4 -14 4q-14 0 -21 -12l-1 -1v-0.5v-0.5q-6 -9 -3.5 -19t11.5 -16q6 -3 13 -3q14 0 22 12zM255 12l-2 1q-6 4 -14 4q-13 0 -21 -10q-6 -9 -4 -19t10 -16q0 -1 0.5 -1h0.5v0l0.5 -0.5l0.5 -0.5q7 -4 14 -4q14 0 21 11q6 8 4 18.5
t-10 16.5zM87 228q-6 17 -23 17q-5 0 -9 -2q-10 -3 -14.5 -12.5t-0.5 -19.5v-1l1 -1q6 -16 23 -16q5 0 9 1q10 4 14.5 13.5t0.5 19.5zM154 108q-8 10 -20 10q-9 0 -15 -6q-9 -6 -10 -16.5t5 -18.5l0.5 -0.5l0.5 -0.5v0v0q8 -10 20 -10q9 0 16 5q8 7 9 17t-5 19zM218 730
q8 7 9 17.5t-6 18.5q-8 9 -19 9q-9 0 -17 -6q0 -1 -1 -2q-8 -6 -8.5 -16.5t5.5 -18.5q8 -9 20 -9q9 0 16 6zM43 480q3 -1 6 -1q20 0 25 19v2q3 10 -2.5 19t-15.5 12h-6q-20 0 -25 -18v-1v0v0v-1v0q-3 -10 2.5 -19t15.5 -12zM378 -49l-1 1q-4 1 -8 1q-18 0 -24 -18
q-3 -10 1.5 -19t14.5 -12q1 0 1.5 -0.5l0.5 -0.5q4 -1 8 -1q18 0 24 18q3 10 -2 19t-15 12zM733 784l1 -1q6 -3 13 -3q15 0 22 13q5 9 2 19t-12 15l-1 1h-1q-5 3 -12 3q-15 0 -22 -13q-5 -9 -2 -19t12 -15zM963 457v-2q2 -9 9 -15t16 -6h4q11 2 17 10t4 19v0.5v0.5v1
q-1 9 -8.5 15t-16.5 6h-4q-10 -2 -16 -10.5t-5 -18.5zM323 800q6 0 10 2l2 1q10 4 13.5 14t-0.5 19q-6 16 -23 16q-5 0 -10 -2q0 -1 -0.5 -1h-1.5q-9 -4 -13 -14t0 -19q7 -16 23 -16zM604 831h2q2 -1 5 -1q8 0 15.5 5.5t8.5 14.5q2 11 -3.5 19.5t-15.5 10.5h-1h-1v0
q-3 1 -5 1q-9 0 -16 -5.5t-9 -14.5q-2 -11 4 -19.5t16 -10.5zM60 361v2q0 10 -7.5 17t-17.5 7h-0.5h-0.5q-11 -1 -18 -8.5t-6 -17.5v-1.5v-0.5q0 -11 7.5 -17.5t17.5 -6.5h1q11 0 18 8t6 18zM882 75q-8 7 -18 7q-11 0 -18 -8l-1 -1q-7 -7 -7 -17.5t8 -18.5q7 -6 17 -6
q11 0 18 7l1 1l0.5 0.5l0.5 0.5q7 7 6.5 17.5t-7.5 17.5zM922 586q7 -14 23 -14q6 0 11 3q9 4 12.5 14t-1.5 20v0l-1 1q-7 14 -22 14q-6 0 -11 -2q-10 -5 -13 -15t1 -19zM750 -7q-6 0 -12 -4l-2 -1q-9 -5 -11.5 -15t2.5 -19q7 -13 22 -13q6 0 12 3q0 1 0.5 1h1.5
q9 5 11.5 15.5t-2.5 19.5q-7 13 -22 13zM993 340q-2 1 -4 1q-9 0 -16.5 -6.5t-8.5 -15.5v-2q-2 -10 4.5 -18.5t16.5 -9.5q2 -1 4 -1q9 0 16 6.5t9 15.5v0.5v0.5v0v0.5v0.5q1 10 -5 18.5t-16 9.5zM958 199q-6 3 -11 3q-16 0 -23 -14l-1 -2q-4 -9 -1 -19t13 -15q5 -2 11 -2
q16 0 22 14q1 0 1 1v0.5v0.5q5 9 1.5 19t-12.5 14zM843 699q8 -8 19 -8q10 0 17 7q8 7 8 17.5t-7 18.5l-0.5 0.5t-1.5 0.5q-7 8 -18 8q-10 0 -17 -7q-8 -7 -8 -17.5t7 -18.5zM466 837h2q10 2 17 10t6 18t-8.5 16.5t-16.5 6.5h-3h-2q-10 -2 -16.5 -10t-5.5 -18t8 -16.5
t17 -6.5h2zM514 -69h-1v0q-11 0 -18.5 -7.5t-7.5 -18t7.5 -18t17.5 -7.5h1h1v0v0q11 0 18 7.5t7 18t-7 18t-18 7.5zM615 -59h-6l-1 -1q-11 -2 -16.5 -10.5t-3.5 -19.5q2 -9 9 -14.5t16 -5.5q2 0 5 1h1v0h1v0q10 2 15.5 11t3.5 19q-2 9 -9 14.5t-15 5.5zM740 220
q-39 10 -88 26q20 13 34 23q18 14 31 32q15 20 15 40q0 41 -62 41h-220v-45h200q25 0 27 -1q2 -2 2 -5t-4 -8q-14 -18 -32 -31q-14 -11 -44 -24q-37 18 -71 43h-59q26 -27 42 -39q12 -9 36 -25q-74 -22 -94 -27v-47q72 19 146 47q43 -18 68.5 -26.5t72.5 -20.5v47zM493 411
q0 9 4 13t18 4h160q19 0 19 -17v-12h45v34q0 18 -17 33v55h-46v-47h-60v47h-46v-47h-61v47h-46v-56q-10 -11 -13 -17t-3 -16v-33h46v12zM394 503h42v47h-42v45h-46v-45h-64v-47h64v-113q-33 -19 -64 -22v-48q22 3 31 5q10 3 33 13v-87q0 -13 -8 -21q-7 -7 -27 -7h-16v-47h15
q39 0 56 12q26 18 26 57v123q19 12 44 21v46q-20 -4 -44 -16v84zM447 538h232q29 0 46 19q12 13 15 38h-46q-1 -7 -5 -9q-3 -3 -26 -3h-216v-45z" />
    <glyph glyph-name="guanwangicon37" unicode="&#xe67d;" 
d="M951 642v8l-427 246l-444 -256l432 -249zM561 -128l414 239v461l-414 -239v-461zM73 557v-446l415 -239v449z" />
    <glyph glyph-name="16chajianyingyongtianjia" unicode="&#xe633;" 
d="M512 896q-138 0 -256 -69t-187 -187t-69 -256t69 -256t187 -187t256 -69t256 69t187 187t69 256t-69 256t-187 187t-256 69zM704 320h-128v-128q0 -29 -17.5 -46.5t-46.5 -17.5q-28 0 -46 19.5t-18 44.5v128h-128q-29 0 -46.5 17.5t-17.5 46.5q0 28 19.5 46t44.5 18h128
v128q0 29 17.5 46.5t46.5 17.5q28 0 46 -19.5t18 -44.5v-128h128q29 0 46.5 -17.5t17.5 -46.5q0 -28 -19.5 -46t-44.5 -18z" />
    <glyph glyph-name="16chajianyingyongyitianjia" unicode="&#xe634;" 
d="M512 896q-138 0 -256 -69t-187 -187t-69 -256t69 -256t187 -187t256 -69t256 69t187 187t69 256t-69 256t-187 187t-256 69zM813 493l-320 -320q-19 -19 -45 -19t-45 19l-179 179q-19 19 -19 44.5t19 45t44.5 19.5t45.5 -19l134 -135l269 269q19 19 44.5 19t44.5 -19
q19 -14 20.5 -41.5t-13.5 -41.5z" />
    <glyph glyph-name="dongtai4" unicode="&#xe6bb;" 
d="M566 812q-109 0 -201 -47t-146 -127.5t-54 -176t54 -176t146 -127.5t201 -47q37 0 75 6l176 -107v178q70 49 110 120.5t40 152.5q0 96 -53.5 176.5t-146 127.5t-201.5 47v0v0zM441 336q-10 0 -17.5 7.5t-7.5 18t7.5 17.5t17.5 7h251q10 0 17.5 -7t7.5 -17.5t-7.5 -18
t-17.5 -7.5h-251v0v0zM391 487q-10 0 -17.5 7t-7.5 17.5t7.5 18t17.5 7.5h351q10 0 17.5 -7.5t7.5 -18t-7.5 -17.5t-17.5 -7h-351v0v0zM391 487zM551 99l-1.5 -0.5t-2.5 -1.5q-57 -22 -122 -24q-12 0 -20 -9q-17 -17 -43 -33q-23 -16 -48 -25q-15 -6 -30 -9q19 41 8 83
q-4 14 -17 20q-83 33 -132 98q-50 65 -50 143t50 143q-11 10 -20 23q-59 -75 -59 -166q0 -88 55 -160t145 -109q11 -42 -19 -84q-5 -8 -1 -16t13 -8v0q28 2 55 10.5t47 20t35.5 23t23.5 18.5t8 8q74 2 140 29q-9 12 -15 26v0zM551 99z" />
    <glyph glyph-name="fuwu4" unicode="&#xe6d8;" 
d="M864 160q-40 0 -68 28t-28 68v128q0 31 18 55t46 35v6q0 133 -93.5 226.5t-226.5 93.5t-226.5 -93.5t-93.5 -226.5v-6q28 -11 46 -35t18 -55v-128q0 -40 -28 -68t-68 -28t-68 28t-28 68v128q0 31 18 55t46 35v6q0 159 112.5 271.5t271.5 112.5t271.5 -112.5t112.5 -271.5
v-6q28 -11 46 -35t18 -55v-128q0 -40 -28 -68t-68 -28zM160 416q-13 0 -22.5 -9.5t-9.5 -22.5v-128q0 -13 9.5 -22.5t22.5 -9.5t22.5 9.5t9.5 22.5v128q0 13 -9.5 22.5t-22.5 9.5zM896 384q0 13 -9.5 22.5t-22.5 9.5t-22.5 -9.5t-9.5 -22.5v-128q0 -13 9.5 -22.5t22.5 -9.5
t22.5 9.5t9.5 22.5v128zM608 -96h-128q-13 0 -22.5 9.5t-9.5 22.5v64q0 13 9.5 22.5t22.5 9.5h128q13 0 22.5 -9.5t9.5 -22.5v-29q82 10 137 63.5t55 125.5h32h32q0 -106 -84.5 -181t-203.5 -75z" />
    <glyph glyph-name="guanlichajian" unicode="&#xe603;" horiz-adv-x="1028" 
d="M948 716q-1 5 -6 6.5t-9 -2.5l-76 -73q-4 -4 -10 -4t-10 4l-76 78q-11 11 0 21l76 73q3 4 2 9t-7 7q-18 4 -38 4q-64 0 -109 -44q-29 -28 -40.5 -67.5t-3.5 -79.5l-366 -356q-20 5 -39 5q-64 0 -109 -44q-29 -29 -41 -68t-3 -79q1 -5 6 -6.5t9 2.5l76 73q10 10 20 0
l76 -78q11 -11 0 -21l-76 -74q-3 -3 -2 -8t7 -7q19 -4 38 -4q63 0 109 44q52 51 47 124l386 375q7 -1 16 -1q64 0 109 44q29 29 41 68t3 79zM1003 47l-350 350q-18 18 -25 36t-5 27l2 9l-32 32l-120 -119l70 69l-283 283l4 40l-123 76l-74 -73l76 -124l52 8l278 -279
l-49 -50l32 -32q42 2 66 -22l356 -356q25 -26 62 -26t62.5 26t26 62.5t-25.5 62.5z" />
    <glyph glyph-name="fangan1" unicode="&#xe616;" 
d="M861 830h-506q-41 0 -69.5 -28.5t-28.5 -69.5v-504q0 -41 28.5 -69.5t69.5 -28.5h506q41 0 69.5 28.5t28.5 69.5v504q0 41 -28.5 69.5t-69.5 28.5zM808 430h-150v-150h-100v150h-150v99h150v150h100v-150h150v-99zM701 60q0 -24 -16.5 -40t-39.5 -16h-459q-24 0 -40 16
t-16 40v458q0 23 16 39.5t40 16.5h7v64h-30q-41 0 -69.5 -28.5t-28.5 -69.5v-504q0 -41 28.5 -69.5t69.5 -28.5h506q41 0 69.5 28.5t28.5 69.5v30h-66v-6v0z" />
    <glyph glyph-name="chanpin1" unicode="&#xe684;" 
d="M962 584l-226 -226q-12 -12 -28.5 -12t-28.5 12l-225 226q-12 12 -12 28.5t12 28.5l226 225q12 12 28.5 12t28.5 -12l225 -226q12 -11 12 -28t-12 -28zM380 -76h-320q-17 0 -28.5 11.5t-11.5 28.5v320q0 17 11.5 28.5t28.5 11.5h320q17 0 28.5 -11.5t11.5 -28.5v-320
q0 -17 -11.5 -28.5t-28.5 -11.5zM380 404h-320q-17 0 -28.5 11.5t-11.5 28.5v320q0 17 11.5 28.5t28.5 11.5h320q17 0 28.5 -11.5t11.5 -28.5v-320q0 -17 -11.5 -28.5t-28.5 -11.5zM540 324h320q17 0 28.5 -11.5t11.5 -28.5v-320q0 -17 -11.5 -28.5t-28.5 -11.5h-320
q-17 0 -28.5 11.5t-11.5 28.5v320q0 17 11.5 28.5t28.5 11.5z" />
    <glyph glyph-name="shouhou1" unicode="&#xe69c;" horiz-adv-x="1025" 
d="M843 184h3q9 0 16 -7t7 -16v-234q0 -9 -7 -16t-16 -7h-3q-9 0 -16 7t-7 16v234q0 9 7 16t16 7zM984 45v-2q0 -10 -6.5 -16.5t-16.5 -6.5h-233q-10 0 -17 6.5t-7 16.5v2q0 9 7 16t17 7h233q10 0 16.5 -7t6.5 -16zM465.5 665q29.5 0 53.5 -4t51.5 -19.5t46.5 -42t32 -74
t13 -113.5q0 -13 10 -23t23.5 -10t23.5 10t10 23q0 77 -16 135t-41.5 92.5t-61 56t-70 29t-74 7.5t-74 -7.5t-70.5 -29t-61 -56t-41.5 -92.5t-16.5 -135q0 -83 36 -158.5t96 -121.5v-5q-134 -19 -212.5 -70t-78.5 -118q0 -14 9.5 -24t23.5 -10t24 10t10 24q0 38 72.5 75.5
t189.5 50.5q12 1 21 10.5t9 22.5v52q0 17 -16 28q-52 34 -84 99t-32 136q0 65 12.5 113t31 74t46.5 41.5t51.5 19.5t53 4zM882 501l-43 11q-6 96 -57.5 175.5t-135 126t-180.5 46.5q-99 0 -183.5 -48t-135.5 -130t-56 -181l-25 -21q-12 -10 -12 -25v-134q0 -14 10 -24
t24 -10t24 10t10 24v118l25 20q12 11 12 26q0 127 90 217t217 90t217.5 -90t90.5 -217q0 -12 7 -21t18 -12l42 -10v-121q0 -14 10 -24t24 -10t24 10t10 24v147q-1 12 -8.5 21.5t-18.5 11.5zM756 363q-2 -6 -10 -13.5t-27 -16.5t-45.5 -16t-70.5 -12t-98 -5q-13 0 -23 -10
t-10 -24t10 -24t23 -10q81 0 142.5 11t93 25t51.5 33t24.5 30t5.5 21l-33 4zM598 128v22q0 14 -10 24t-24 10t-24 -10t-10 -24v-52q0 -12 8.5 -22t21.5 -11q33 -4 50 -7v68q-6 0 -12 2z" />
    <glyph glyph-name="lianxidizhi" unicode="&#xe62c;" 
d="M512 -128q-104 0 -199 40.5t-163.5 109t-109 163.5t-40.5 199t40.5 199t109 163.5t163.5 109t199 40.5t199 -40.5t163.5 -109t109 -163.5t40.5 -199t-40.5 -199t-109 -163.5t-163.5 -109t-199 -40.5zM512 863q-97 0 -186 -38t-153 -102t-102 -153t-38 -186t38 -186
t102 -153t153 -102t186 -38t186 38t153 102t102 153t38 186t-38 186t-102 153t-153 102t-186 38zM512 145l-11 10q-12 11 -31 28.5t-61 62t-74.5 86.5t-58.5 93t-26 90q0 105 74.5 179.5t179.5 74.5t179.5 -74.5t74.5 -179.5q0 -38 -24.5 -89.5t-54.5 -93.5t-69.5 -86.5
t-57 -62t-29.5 -28.5zM504 736q-91 0 -156 -65t-65 -156q0 -37 27.5 -87.5t70.5 -100.5t73 -81t58 -56q26 26 53.5 56.5t68 80.5t66 100.5t25.5 87.5q0 91 -65 156t-156 65zM503.5 444q-37.5 0 -64 27t-26.5 64.5t26.5 64t64 26.5t64.5 -26.5t27 -64t-27 -64.5t-64.5 -27z
M504 610q-31 0 -52.5 -22t-21.5 -52.5t21.5 -52.5t52.5 -22t52.5 22t21.5 52.5t-21.5 52.5t-52.5 22zM330 9q-49 0 -66 28q-7 11 -8 24t2.5 25t6 18t4.5 10l57 139l30 -13l-57 -140q-16 -31 -7 -46q8 -13 46 -11q128 7 203 7v-33q-74 0 -202 -7q-5 -1 -9 -1zM684 9
q-5 0 -10 1q-127 7 -201 7v33q75 0 203 -7q37 -2 46 11q9 16 -6 44l-59 142l31 13l58 -141q1 -3 3.5 -9t6 -17.5t2.5 -24.5t-8 -24q-17 -28 -66 -28z" />
    <glyph glyph-name="module" unicode="&#xe604;" 
d="M384 416h-288q-38 0 -67 29t-29 67v288q0 38 29 67t67 29h288q38 0 67 -29t29 -67v-288q0 -38 -29 -67t-67 -29zM384 -128h-288q-38 0 -67 29t-29 67v288q0 38 29 67t67 29h288q38 0 67 -29t29 -67v-282q0 -42 -28.5 -72t-67.5 -30zM787 -128v0q-100 0 -171.5 70
t-71.5 167v0q0 100 70 168.5t167 68.5v0q100 0 168.5 -70t68.5 -167v0q4 -96 -65 -166.5t-166 -70.5zM928 416h-288q-38 0 -67 29t-29 67v288q0 38 29 67t67 29h282q42 0 72 -28.5t30 -67.5v-288q0 -38 -29 -67t-67 -29z" />
    <glyph glyph-name="dongtai5" unicode="&#xe629;" 
d="M608 834h2q3 -15 -8 -45l-80 -214q-15 -42 -47 -69t-65 -27q-13 0 -24 4q-38 14 -55 50.5t-3 74.5q17 46 73 102.5t114 85.5l51 25q26 13 42 13zM702 567q17 0 33 -6q47 -17 103.5 -73t84.5 -114l26 -51q13 -28 13 -44h-6q-16 0 -39 9l-215 79q-51 18 -78 59t-13 78
q10 28 35.5 45.5t55.5 17.5zM61 483q15 0 39 -9l214 -79q55 -20 81 -64q24 -38 11 -73q-11 -28 -36 -45.5t-55 -17.5q-17 0 -33 6q-47 17 -103.5 73t-84.5 113l-26 51q-14 28 -13 44q3 1 6 1zM607 283q13 0 24 -5q38 -13 54.5 -49.5t3.5 -74.5q-18 -47 -74 -103t-113 -85
l-51 -25q-27 -14 -42 -14q-2 0 -2 1q-3 15 8 44l79 215q15 41 47 68.5t66 27.5zM608 879q-26 0 -62 -17l-51 -26q-66 -33 -127.5 -95.5t-82 -117.5t4.5 -108.5t80 -73.5q19 -7 40 -7q47 0 90.5 34.5t64.5 90.5l79 215q18 50 8 77.5t-44 27.5v0v0zM702 612q-44 0 -81 -25
t-53 -68q-20 -55 15 -112.5t104 -82.5l214 -79q31 -11 55 -11q39 0 48.5 29t-15.5 80l-25 51q-33 66 -95.5 127.5t-117.5 81.5q-24 9 -49 9v0v0zM61 528q-39 0 -48.5 -29.5t14.5 -80.5l26 -51q33 -66 95.5 -127t117.5 -82q23 -8 49 -8q44 0 81 25t52 68q21 55 -14 112
t-104 83l-214 79q-32 11 -55 11v0v0zM607 328q-48 0 -91.5 -34.5t-63.5 -90.5l-79 -215q-18 -50 -8 -78t44 -28q26 0 62 18l51 25q66 33 127.5 95.5t81.5 117.5t-4.5 108.5t-79.5 74.5q-19 7 -40 7v0v0zM607 328z" />
    <glyph glyph-name="shouquanzhuanhuan" unicode="&#xe61e;" 
d="M602.5 420q-22.5 0 -38.5 16t-16 39t16 39t38.5 16t38 -16t15.5 -39t-15.5 -39t-38 -16zM602.5 639q-67.5 0 -115 -48t-47.5 -116q0 -48 26 -88l-197 -198q-10 -10 -10 -24.5t10.5 -25t24.5 -10.5t24 11l63 63l33 -33q10 -10 21 0.5t0 21.5l-32 32l51 52l32 -33
q10 -11 21 0t0 22l-32 32l40 40q40 -26 87 -26q68 0 115.5 48t47.5 116t-47.5 116t-115 48zM50 384q0 -94 36.5 -179.5t98.5 -147.5t147.5 -98.5t179.5 -36.5t179.5 36.5t147.5 98.5t98.5 147.5t36.5 179.5t-36.5 179.5t-98.5 147.5t-147.5 98.5t-179.5 36.5t-179.5 -36.5
t-147.5 -98.5t-98.5 -147.5t-36.5 -179.5zM101 384q0 112 55 206.5t149.5 149.5t206.5 55t206.5 -55t149.5 -149.5t55 -206.5t-55 -206.5t-149.5 -149.5t-206.5 -55t-206.5 55t-149.5 149.5t-55 206.5z" />
    <glyph glyph-name="shouquan2" unicode="&#xe71a;" 
d="M504.5 880q102.5 0 195.5 -40t160.5 -107.5t107.5 -161t40 -195.5t-40 -195.5t-107.5 -161t-160.5 -107.5t-195.5 -40t-195.5 40t-160.5 107.5t-107.5 161t-40 195.5t40 195.5t107.5 161t160.5 107.5t195.5 40zM504.5 -60q88.5 0 169 35t139 93t93 138.5t34.5 169
t-34.5 169.5t-93 139t-139 92.5t-169 34.5t-169 -34.5t-139 -92.5t-93 -139t-34.5 -169.5t34.5 -169t93 -138.5t139 -93t169 -35zM295 433q34 -35 82.5 -42.5t90.5 13.5l130 -130l-48 -48q-10 -10 -10 -24t10 -24t24 -10t24 10l48 48l48 -48l-48 -49q-10 -10 -10 -24t10 -24
t24 -10t24 10l97 97l-270 269q35 44 31.5 101.5t-44.5 98.5q-44 44 -106.5 44t-107 -44.5t-44.5 -107t45 -106.5zM342.5 598.5q24.5 24.5 59 24.5t58.5 -24.5t24 -59t-24 -58.5t-58.5 -24t-59 24t-24.5 58.5t24.5 59z" />
    <glyph glyph-name="dongtai6" unicode="&#xe624;" 
d="M511 831q-120 0 -221.5 -58t-162 -158t-62.5 -219q2 103 51 190.5t131.5 138.5t179.5 51q98 0 181.5 -52.5t132 -142.5t48.5 -196q0 -34 24.5 -58.5t59.5 -24.5t59.5 24.5t24.5 58.5q0 91 -35.5 173.5t-95 142.5t-142.5 95t-173 35zM511 -61q119 0 220.5 58t162 158.5
t63.5 219.5q-3 -104 -52 -191.5t-131.5 -138t-179.5 -50.5q-98 0 -181.5 52t-132 142t-48.5 196q0 35 -24.5 59.5t-59.5 24.5t-59.5 -24.5t-24.5 -59.5q0 -91 35.5 -173.5t95.5 -142t142.5 -95t173.5 -35.5z" />
    <glyph glyph-name="artboard13" unicode="&#xe7e0;" 
d="M961 78h-924v647h920v-647h4zM91 132h809v539h-809v-539zM987 -22h-942q-7 0 -12 8.5t-5 19.5q0 12 4.5 19.5t12.5 7.5h942q6 0 11 -8t5 -19q0 -28 -16 -28v0zM339 400q-19 0 -33 14t-14 33q0 20 14.5 33.5t32.5 13.5t32.5 -14.5t14.5 -32.5q0 -19 -13.5 -33t-33.5 -14v0
zM179 264q-19 0 -33 14t-14 33q0 20 13.5 33.5t33.5 13.5t33 -13.5t13 -33.5q0 -19 -14 -33t-32 -14v0zM565 242q-19 0 -33 13.5t-14 33.5t13.5 33t33 13t33 -13t13.5 -33t-14 -33.5t-32 -13.5v0zM818 445q-19 0 -32.5 13.5t-13.5 33.5t13.5 33t33 13t33 -13t13.5 -33
t-13.5 -33.5t-33.5 -13.5v0zM328 469l17 -22l-157 -123l-17 23zM313 447l17 22l228 -172l-17 -22zM781 498l19 -21l-212 -192l-19 22z" />
    <glyph glyph-name="icon" unicode="&#xe605;" 
d="M932 803q0 21 -18.5 32t-38.5 1q-37 -19 -71.5 -28t-87.5 -9q-40 0 -73.5 7t-51 14t-47.5 23q-33 17 -54 26t-63.5 18t-91.5 9q-89 0 -160 -30l-10 -4l-4 10q-10 24 -37 24q-16 0 -27.5 -11t-11.5 -27v-942q0 -16 11.5 -27t27.5 -11t27.5 11t11.5 27v405l6 3
q41 21 76.5 31t89.5 10q40 0 73.5 -7t51 -14.5t48.5 -22.5q33 -17 53.5 -26t63.5 -18t91 -9q64 0 108 12t87 34q21 11 21 34v455z" />
    <glyph glyph-name="xitongpeizhi" unicode="&#xe62a;" 
d="M932 671l-416 -170l-417 170l416 161zM64 600l416 -173v-470q-37 16 -103 46q-45 19 -104 45q-58 24 -115 49q-21 10 -38.5 25.5t-29.5 34t-19 39.5t-7 41v363v0zM958 600v-361q0 -25 -9.5 -48t-24.5 -43.5t-33 -36.5t-35 -24q-45 -19 -106 -44q-53 -22 -102 -42
q-55 -24 -106 -44v470zM958 600z" />
    <glyph glyph-name="chanpin2" unicode="&#xe82a;" 
d="M874 216q-29 -27 -97.5 -91.5t-105.5 -99.5q-210 223 -453 480l203 192zM505 512q-20 -6 -29 -24q-5 -9 7 -23q72 -76 108 -115q110 -116 138 -145q12 -13 19 -9q15 8 26 22q5 8 -8 23q-31 32 -65 69q-124 131 -181 191q-1 1 -15 11zM414 606q-19 -15 -21 -17
q-13 -13 -1 -27q7 -7 19 -21q11 -11 21 -3q2 1 8 5t8.5 6t4.5 7t2 11q-1 4 -4 6q-16 18 -24 26q0 1 -13 7zM245 397q25 -26 73 -78q38 -40 40 -42q10 -9 -1 -19q-17 -14 -35 4l-52 54q0 1 -7 11q-5 -5 -19 -18q9 -9 28 -29t29 -30q23 -24 6 -40q-16 -15 -39 8q-4 3 -61 55
l1 1.5t2 2.5l-17 -16q41 -43 49 -51q11 -11 12 -13q19 -20 3 -35q-17 -16 -36 3q-11 12 -47 49q-1 2 -15 16q-3 -4 -8.5 -10t-7.5 -8l55 -58l9 -9q14 -17 0 -31q-15 -16 -32 -1q-4 3 -9.5 9t-8.5 8q-10 9 -28.5 26t-22.5 20q-10 -7 -9.5 -22.5t12.5 -27.5q19 -20 89 -93
q42 -43 47 -49q30 -30 61 -1q24 23 50.5 49t59.5 57.5t51 48.5l11 11l42 -44q-34 -35 -37 -37q-49 -48 -183 -177q-26 -26 -53 2q-111 115 -229 237q-24 25 0 49q49 47 222 214zM597 652l88 -91q16 -17 20 -21q8 -10 4.5 -23t-15.5 -16q-11 -2 -17 4q-40 42 -150 159l-2 4
l92 89l107 103q26 25 52 -1q42 -43 118.5 -123t109.5 -114q26 -27 -1 -53q-99 -95 -198 -191q-1 -1 -2.5 -2t-2.5 -2l-38 40q56 62 61 68q18 17 51 48.5t40 38.5q28 28 0 57q-68 71 -137 142q-12 13 -26.5 14t-26.5 -10q-13 -11 -127 -120zM329 795l-204 -192q-71 78 -77 85
q-13 17 -10 39t20 38q56 54 113 107q18 16 39.5 18t38.5 -13q7 -6 80 -82zM214 837l-124 -116q23 -25 38 -40l123 116zM697 -2l202 191q8 -23 10 -30q36 -115 65 -206q0 -2 1 -4t1 -3q6 -21 -7.5 -34t-35.5 -5q-36 14 -65 25q-156 60 -164 63q-1 0 -3 1zM882 122
q-71 -67 -118 -111q75 -29 91 -35q4 -1 9 4q7 6 20.5 19t21 19.5t4.5 15.5t-8 25t-6 18q-4 12 -14 45zM197 527l-52 56l203 191l52 -55zM771 558q-31 0 -53.5 22t-23.5 55q-1 31 21.5 54t55.5 24q31 1 54 -22t23.5 -54.5t-22 -54.5t-55.5 -24zM802 635v1q0 12 -9 21t-21 10
h-1q-13 0 -22 -9.5t-9 -21.5v0v0q0 -13 9 -22t22 -10v0q13 0 22 9t9 22z" />
    <glyph glyph-name="fuwu5" unicode="&#xe6a6;" 
d="M443 626h-369v-108h369v108zM152 547q-10 0 -17 7.5t-7 17.5t7 17t17 7t17 -7t7 -17t-7 -17.5t-17 -7.5zM259 547q-10 0 -17.5 7.5t-7.5 17.5t7.5 17t17.5 7t17 -7t7 -17t-7 -17.5t-17 -7.5zM365 547q-10 0 -17 7.5t-7 17.5t7 17t17 7t17.5 -7t7.5 -17t-7.5 -17.5
t-17.5 -7.5zM443 830h-369v-108h369v108zM152 751q-10 0 -17 7.5t-7 17.5t7 17t17 7t17 -7t7 -17t-7 -17.5t-17 -7.5zM259 751q-10 0 -17.5 7.5t-7.5 17.5t7.5 17t17.5 7t17 -7t7 -17t-7 -17.5t-17 -7.5zM365 751q-10 0 -17 7.5t-7 17.5t7 17t17 7t17.5 -7t7.5 -17
t-7.5 -17.5t-17.5 -7.5zM443 422h-369v-108h369v108zM152 343q-10 0 -17 7.5t-7 17.5t7 17t17 7t17 -7t7.5 -17.5t-7 -17.5t-17.5 -7zM259 343q-10 0 -17.5 7.5t-7.5 17.5t7.5 17t17.5 7t17 -7t7 -17.5t-7 -17.5t-17 -7zM585 166h-138v73h-373v-219h373v73h138v-73h373v219
h-373v-73zM399 93h-277v72h277v-72zM633 165h277v-72h-277v72zM959 613q-1 2 -3 4l-34 19l1 8v11.5v12.5l-1 7l34 20q2 1 2.5 3.5t-0.5 4.5l-25 43q-3 5 -8 2l-34 -20l-6 4q-9 8 -20 12l-7 3v40q0 6 -6 6h-49q-6 0 -6 -6v-40l-7 -3q-10 -4 -20 -12l-6 -4l-34 20q-5 3 -8 -2
l-12 -21h7q13 0 22.5 -9.5t9.5 -23.5v-34q4 -2 9 -5v2q0 29 20.5 50t49 21t49 -20.5t20.5 -49.5q0 -34 -26 -55l2 -3q7 -12 3 -25v-0.5v-0.5q5 3 9 7l6 4l34 -20q2 -1 3 -1q4 0 6 3l24 43q1 3 1 5zM499 542l36 -20q-1 -8 -1 -17t1 -17l-36 -21q-8 -5 -10 -13.5t2 -16.5
l32 -55q4 -8 13 -10.5t17 2.5l35 21q13 -10 30 -17v-42q0 -9 6 -15.5t15 -6.5h63q9 0 15.5 6.5t6.5 15.5v42q15 6 29 17l36 -21q8 -4 16.5 -2t12.5 10l32 55q4 8 2 17t-10 13l-36 21q1 8 1 17q0 8 -1 17l36 21q7 4 9.5 13t-2.5 17l-6 12l-25 43q-5 7 -13.5 9.5t-16.5 -1.5
l-36 -21q-13 10 -29 17v41q0 10 -6 16t-15 6h-63q-9 0 -15.5 -6.5t-6.5 -15.5v-41q-16 -7 -29 -17l-36 20q-8 5 -16.5 2.5t-13.5 -10.5l-31 -55q-4 -7 -2 -16t10 -14zM670 581h2h2q41 -2 62 -39q10 -17 10 -37q0 -32 -22 -54t-53.5 -22t-53.5 22t-22 53.5t22 54t53 22.5z
" />
    <glyph glyph-name="iconfontdengdai" unicode="&#xe606;" 
d="M898 399v162q-1 3 -2 7t-9 12.5t-20 10.5h-172v20q6 3 14.5 9.5t25 27.5t21.5 44q4 47 -10 71q-1 2 -2.5 5.5t-9 14t-18 19t-29.5 18t-42 13.5q-3 1 -9 1t-22.5 -1.5t-31 -7t-31.5 -19t-27 -33.5q-1 -3 -3 -8.5t-4.5 -21.5t-2.5 -31q-3 -31 20 -71q16 -18 40 -30v-20
h-303q-20 -8 -20 -30v-293h-20q-1 1 -2.5 4t-7.5 11.5t-14 15.5t-23.5 15.5t-33.5 13.5q-41 5 -71 -10q-49 -25 -60 -60q-3 -5 -6 -13.5t-4 -37.5t10 -61q1 -4 5 -10.5t22 -23t43 -26.5q52 -9 91 10q30 16 51 50h20v-181q6 -18 30 -21h152h3t7.5 5t9.5 16v30q-6 4 -14.5 12
t-25 31.5t-21.5 47.5q-4 56 21 91q9 13 24 23t26 14l10 3q2 1 4.5 2t12 3t19 3t24.5 -1t30 -6q0 -1 1 -1q37 -12 53 -60t8 -81q-14 -32 -51 -71v-40q10 -19 31 -21h262q3 1 7.5 2t12.5 8.5t11 20.5v283q-4 2 -9.5 5t-21.5 3.5t-30 -8.5q-3 -5 -9 -11t-24.5 -19t-38.5 -18.5
t-50 0t-60 27.5q-3 4 -7.5 9.5t-13.5 23.5t-13 36.5t1 44t23 48.5q2 4 7 9.5t20.5 17t33 16.5t45 0.5t56.5 -23.5v0q2 -2 5 -5.5t13.5 -10.5t21 -10.5t24.5 -3t27 9.5z" />
    <glyph glyph-name="shouquan3" unicode="&#xe630;" 
d="M392 363h-69q11 -26 32 -44q25 18 37 44zM1006 241l1 287q0 8 -6 14t-14 6h-154q-45 90 -131 143.5t-189 53.5t-189 -54t-132 -143h-154q-8 0 -14 -6t-6 -15l-1 -287q0 -8 6 -14t14 -6h154q45 -90 131 -143.5t189 -53.5t189 54t132 143h154q8 0 14 6t6 15zM803 467
q-11 -81 -50 -132q25 -25 67 -42q-10 -10 -16 -19q-40 21 -64 46q-27 -28 -75 -52q-5 9 -13 18q50 23 76 49q-35 45 -44 132h-14v17h133v-17zM305 363h-14v17h122v-17q-15 -32 -43 -54q28 -16 69 -21q-7 -9 -14 -19q-42 8 -71 29q-32 -21 -79 -30q-5 7 -11 17q45 7 76 24
q-23 22 -35 54zM641 402l11 10q20 -20 33 -36l-14 -13q-15 20 -29 35l-1 -129h-18l1 128q-13 -39 -31 -66q-3 9 -8 20q24 37 36 82h-34v17h37v49l18 1v-50h33v-17h-33zM277 548q40 57 102 90.5t134 33.5t134 -33t101 -91h-471zM427 492l3 -17q-72 -6 -143 -9q-2 9 -3 18
q78 1 143 8zM372 435l-16 -7q-7 16 -16 32l15 7q10 -17 17 -32zM308 463q10 -14 19 -30l-16 -9q-8 17 -17 32zM382 423q13 22 24 44l18 -7q-11 -19 -23 -37h31v-36h-18v19h-114v-19h-18v36h100zM747 220q-40 -57 -102 -90.5t-134 -33.5t-134 33.5t-101 90.5h471zM513 714
q90 0 165.5 -45t118.5 -121h-32q-41 64 -107.5 101.5t-144.5 37t-145 -37.5t-108 -101h-32q43 75 119 120.5t166 45.5zM228 271h-18q-1 10 -3 20q11 -1 18 -1q9 0 9 9v66l-28 -14l-2 21q16 7 30 13v53h-28v17h28v45h17v-45h27v-17h-27v-44q9 4 24 12q0 -12 1 -19
q-5 -3 -25 -13v-78q0 -24 -23 -25zM511 54q-90 0 -165.5 45t-118.5 121h32q41 -64 107.5 -101t144.5 -37t145 37t108 101h32q-43 -75 -119 -120.5t-166 -45.5zM740 350q33 43 43 117h-80q7 -76 37 -117z" />
    <glyph glyph-name="lianxifangshi1" unicode="&#xe6b6;" 
d="M355 250q-44 59 -68.5 116.5t-28 101t-1.5 68t8 42.5q9 43 44 71t79 28h4q52 -2 88.5 -40t35.5 -91q-2 -46 -33 -80l-3 -3q-10 -10 -18 -16q-27 -34 19 -95q46 -62 92 -45q33 24 74 24h4q52 -2 88 -40t35 -92q-2 -52 -39 -88t-88 -36h-3h-6h-8v1q-21 0 -46 5.5
t-62.5 21.5t-81.5 54t-85 93zM644 141q2 0 3 -1q26 0 44 18t19 44t-17 45q-17 18 -46 19q-21 0 -38 -14q-3 -2 -8 -4q-22 -10 -48 -10q-68 0 -123 74q-25 34 -35 65t-6 53.5t11 36.5t16 25q4 4 7 5q7 5 12 10v1v0q16 18 17 40q0 27 -18 46t-45 19q-22 0 -39.5 -14t-22.5 -37
q-4 -13 -5.5 -32t1 -55t24 -85.5t60.5 -100.5q30 -42 63.5 -72t58 -44.5t49 -22.5t36 -9t20.5 -1q7 1 10 1zM64 380.5q0 90.5 35.5 173.5t95.5 143t143 95.5t174 35.5t174 -35.5t143 -95.5t95.5 -143t35.5 -174q0 -129 -69 -238q-7 -11 -20 -14t-24 4t-14 20t4 24
q58 93 58 204q0 104 -51 192.5t-139.5 140t-193 51.5t-193 -51.5t-140 -140t-51.5 -192.5t51.5 -192.5t140 -140t192.5 -51.5q78 0 149 30q13 5 25 0t17 -17q5 -13 0.5 -25t-16.5 -17q-83 -35 -174 -35t-174 36t-143 96t-95.5 143t-35.5 173.5z" />
    <glyph glyph-name="chanpinfangan" unicode="&#xe620;" 
d="M408 287q-7 0 -14 -5h-87v-40h87q7 -5 14 -5t14 5h295v40h-295q-7 5 -14 5zM640 408q-7 0 -14 -5h-319v-40h319q7 -5 14 -5t14 5h63v40h-63q-7 5 -14 5zM818 232v301q50 8 83.5 46.5t33.5 89.5q0 57 -40 97t-97 40q-51 0 -89.5 -33.5t-45.5 -83.5h-302q-7 50 -45.5 83.5
t-89.5 33.5q-57 0 -97 -40t-40 -97q0 -51 33.5 -89.5t83.5 -46.5v-301q-50 -7 -83.5 -45.5t-33.5 -89.5q0 -57 40 -97.5t97 -40.5q51 0 89.5 33.5t45.5 83.5h302q7 -50 45.5 -83.5t89.5 -33.5q57 0 97 40.5t40 97.5q0 51 -33.5 89.5t-83.5 45.5zM798 766q40 0 68.5 -28.5
t28.5 -68.5t-28.5 -68.5t-68.5 -28.5t-68.5 28.5t-28.5 68.5t28.5 68.5t68.5 28.5zM129 669q0 40 28.5 68.5t68.5 28.5t68.5 -28.5t28.5 -68.5t-28.5 -68.5t-68.5 -28.5t-68.5 28.5t-28.5 68.5zM226 0q-40 0 -68.5 28t-28.5 68.5t28.5 68.5t68.5 28t68.5 -28t28.5 -68.5
t-28.5 -68.5t-68.5 -28zM663 117h-302q-6 44 -38 76t-77 39v301q45 7 77 39t38 77h302q6 -45 38 -77t77 -39v-301q-45 -7 -77 -39t-38 -76zM798 0q-40 0 -68.5 28t-28.5 68.5t28.5 68.5t68.5 28t68.5 -28t28.5 -68.5t-28.5 -68.5t-68.5 -28v0zM422 524q-7 5 -14 5t-14 -5
h-87v-40h87q7 -5 14 -5t14 5h295v40h-295z" />
  </font>
</defs>
</svg>
